# Blender v2.79 (sub 0) OBJ File: 'yellowTV.blend'
# www.blender.org
mtllib yellowtvscreen.mtl
o screen_Screen_television.001
v 20.670469 9.530990 24.828724
v 20.670469 57.549335 24.828732
v 16.453646 54.211613 25.558464
v 16.453646 12.868672 25.558456
v -39.995762 9.530990 24.828724
v -35.778896 12.868672 25.558456
v -45.111469 5.481795 23.841824
v 25.786215 5.481795 23.841824
v 25.786215 61.598530 23.841835
v -45.111469 61.598530 23.841835
v -39.995762 57.549335 24.828732
v -35.778896 54.211613 25.558464
v 11.271687 50.110031 26.366268
v 11.271687 16.970261 26.366261
v -30.596979 16.970261 26.366261
v -30.596979 50.110031 26.366268
v 5.795803 45.775795 27.112576
v 5.795803 21.304504 27.112572
v -25.121098 21.304504 27.112572
v -25.121098 45.775795 27.112576
vt 0.927844 0.072157
vt 0.927844 0.927844
vt 0.868366 0.868366
vt 0.868366 0.131635
vt 0.072157 0.072157
vt 0.131634 0.131635
vt 0.000000 0.000000
vt 1.000000 0.000000
vt 1.000000 1.000000
vt 0.000000 1.000000
vt 0.072157 0.927844
vt 0.131634 0.868366
vt 0.795275 0.795275
vt 0.795275 0.204725
vt 0.204725 0.204725
vt 0.204725 0.795275
vt 0.718039 0.718039
vt 0.718039 0.281961
vt 0.281961 0.281961
vt 0.281961 0.718039
vn 0.0930 -0.1172 0.9887
vn 0.0930 0.1172 0.9887
vn 0.0836 0.1055 0.9909
vn 0.0836 -0.1055 0.9909
vn -0.0930 -0.1172 0.9887
vn -0.0836 -0.1055 0.9909
vn -0.1094 -0.1027 0.9887
vn 0.1094 -0.1027 0.9887
vn 0.1094 0.1027 0.9887
vn -0.1094 0.1027 0.9887
vn -0.0930 0.1172 0.9887
vn -0.0836 0.1055 0.9909
vn 0.0748 0.0948 0.9927
vn 0.0748 -0.0948 0.9927
vn -0.0748 -0.0948 0.9927
vn -0.0748 0.0948 0.9927
vn 0.0484 0.0671 0.9966
vn 0.0484 -0.0671 0.9966
vn -0.0484 -0.0671 0.9966
vn -0.0484 0.0671 0.9966
usemtl Material.001
s 1
f 1/1/1 2/2/2 3/3/3 4/4/4
f 5/5/5 1/1/1 4/4/4 6/6/6
f 7/7/7 8/8/8 1/1/1 5/5/5
f 8/8/8 9/9/9 2/2/2 1/1/1
f 9/9/9 10/10/10 11/11/11 2/2/2
f 10/10/10 7/7/7 5/5/5 11/11/11
f 11/11/11 5/5/5 6/6/6 12/12/12
f 2/2/2 11/11/11 12/12/12 3/3/3
f 4/4/4 3/3/3 13/13/13 14/14/14
f 6/6/6 4/4/4 14/14/14 15/15/15
f 12/12/12 6/6/6 15/15/15 16/16/16
f 3/3/3 12/12/12 16/16/16 13/13/13
f 14/14/14 13/13/13 17/17/17 18/18/18
f 15/15/15 14/14/14 18/18/18 19/19/19
f 16/16/16 15/15/15 19/19/19 20/20/20
f 13/13/13 16/16/16 20/20/20 17/17/17
f 17/17/17 20/20/20 19/19/19 18/18/18
